
<svg
   class="header-svg"
   viewBox="90 0 600 600"
   version="1.1"
   xml:space="preserve"
   style="fill-rule:evenodd;clip-rule:evenodd;stroke-linecap:round;stroke-linejoin:round;stroke-miterlimit:1.5;"
   id="svg229532"
   sodipodi:docname="wedding-logo-old.svg"
   inkscape:version="1.1.2 (0a00cf5339, 2022-02-04)"
   xmlns:inkscape="http://www.inkscape.org/namespaces/inkscape"
   xmlns:sodipodi="http://sodipodi.sourceforge.net/DTD/sodipodi-0.dtd"
   xmlns="http://www.w3.org/2000/svg"
   xmlns:svg="http://www.w3.org/2000/svg"><sodipodi:namedview
   id="namedview229534"
   pagecolor="#ffffff"
   bordercolor="#666666"
   borderopacity="1.0"
   inkscape:pageshadow="2"
   inkscape:pageopacity="0.0"
   inkscape:pagecheckerboard="0"
   showgrid="false"
   inkscape:zoom="1.3033333"
   inkscape:cx="146.54732"
   inkscape:cy="269.30947"
   inkscape:window-width="1920"
   inkscape:window-height="1043"
   inkscape:window-x="0"
   inkscape:window-y="0"
   inkscape:window-maximized="1"
   inkscape:current-layer="layer1" />
    <g
   inkscape:groupmode="layer"
   id="layer2"
   inkscape:label="Layer 2"
   style="display:inline"><g
     id="circle"
     style="clip-rule:evenodd;display:inline;fill-rule:evenodd;stroke-linecap:round;stroke-linejoin:round;stroke-miterlimit:1.5"
     transform="matrix(1.36555,0,0,1.44839,-146.465,-150.754)">
            <ellipse
   cx="400.53601"
   cy="311.211"
   rx="183.076"
   ry="172.606"
   style="fill:none;stroke:#faf2da;stroke-width:9.95px"
   id="ellipse228780" />
        </g></g><g
   inkscape:groupmode="layer"
   id="layer3"
   inkscape:label="flor"
   style="display:inline" /><g
   inkscape:groupmode="layer"
   id="layer4"
   inkscape:label="flor 2"
   style="display:inline"><path
     d="m 585.48794,475.05636 c 0,0 -0.17986,-0.33853 -0.48141,-0.9782 -0.28778,-0.64255 -0.75395,-1.57622 -1.26067,-2.78078 -1.03652,-2.41215 -2.41932,-5.83928 -3.85946,-10.02133 -1.44555,-4.17353 -2.94143,-9.09676 -4.28321,-14.44087 -0.34482,-1.33817 -0.65198,-2.70552 -0.96453,-4.08985 -0.32551,-1.38118 -0.61851,-2.79315 -0.88481,-4.21931 -0.5946,-2.8399 -1.02293,-5.77013 -1.48626,-8.6898 -0.34952,-2.94565 -0.7528,-5.88041 -0.93077,-8.80763 -0.12001,-1.45844 -0.23572,-2.90327 -0.26091,-4.34456 -0.0489,-1.43742 -0.10903,-2.85583 -0.11503,-4.25239 0.0269,-2.80246 0.0441,-5.49974 0.25965,-8.06715 0.10888,-1.28132 0.19509,-2.52575 0.31484,-3.72611 0.14386,-1.20208 0.29975,-2.36264 0.46188,-3.47125 0.18123,-1.10984 0.31163,-2.17007 0.51276,-3.1747 0.21469,-1.00451 0.39777,-1.95552 0.60609,-2.8446 0.20858,-0.88899 0.38475,-1.71962 0.58443,-2.48272 0.20803,-0.76358 0.41314,-1.46169 0.61055,-2.08869 0.37541,-1.25693 0.7383,-2.23084 0.95565,-2.89555 0.23027,-0.66379 0.37306,-1.01366 0.37306,-1.01366 0,0 0.0931,0.37475 0.2287,1.07144 0.12359,0.69583 0.34887,1.71619 0.5485,2.99914 0.10026,0.63963 0.21141,1.34687 0.33222,2.11841 0.14955,0.77024 0.27085,1.59909 0.42224,2.48218 0.27248,1.76602 0.55143,3.74437 0.91178,5.89393 0.29954,2.14707 0.66592,4.46291 1.03755,6.90287 0.0983,0.60938 0.17246,1.22759 0.25696,1.8531 0.0996,0.62409 0.2004,1.25666 0.30247,1.89578 0.22041,1.27716 0.36127,2.58278 0.56484,3.90679 0.23063,1.32423 0.40987,2.67338 0.60524,4.0367 0.2004,1.36386 0.40348,2.74389 0.60764,4.13547 0.39614,2.78858 0.79854,5.62096 1.20068,8.45326 0.39273,2.84572 0.77437,5.68698 1.12805,8.50732 0.19321,1.40555 0.33821,2.80534 0.50266,4.19281 0.16565,1.38678 0.33007,2.75685 0.44894,4.11181 0.5737,5.41447 0.93698,10.52076 1.09663,14.94114 0.15943,4.41419 0.11242,8.14876 -0.0262,10.75838 -0.0542,1.30438 -0.16605,2.34179 -0.21152,3.04444 -0.0589,0.7046 -0.1092,1.08417 -0.1092,1.08417"
     style="fill:#12688d;fill-opacity:1;fill-rule:nonzero;stroke:none;stroke-width:0.0967287"
     id="path3401" /><path
     d="m 604.58144,491.18224 c 0,0 0.33354,-0.0192 0.94773,-0.0188 0.61044,0.0138 1.51873,-0.0104 2.64953,0.0459 1.13415,0.041 2.50158,0.12776 4.0601,0.26145 1.5595,0.14422 3.29922,0.30344 5.20044,0.62397 1.89892,0.30759 3.94894,0.68341 6.10833,1.13398 2.16656,0.43234 4.40468,1.02676 6.70742,1.69531 1.15855,0.31607 2.32158,0.67949 3.50046,1.04681 0.59015,0.18286 1.18398,0.36684 1.78036,0.55239 0.58568,0.21616 1.17564,0.43471 1.76746,0.6538 2.36885,0.87076 4.76229,1.80225 7.13158,2.79057 2.34122,1.06232 4.65844,2.18459 6.91927,3.32616 0.56418,0.28812 1.12535,0.57634 1.68402,0.86277 0.55366,0.29712 1.08877,0.62424 1.62925,0.9326 1.07552,0.62523 2.14276,1.23057 3.16888,1.87522 2.06697,1.25506 4.05236,2.49198 5.84811,3.81005 1.80739,1.29818 3.4893,2.56768 5.02078,3.77017 1.53743,1.19207 2.87349,2.40139 4.0542,3.47681 1.17676,1.08237 2.18443,2.0511 2.99745,2.87679 0.82031,0.81061 1.42931,1.50878 1.85787,1.95806 0.42351,0.46 0.63863,0.7237 0.63863,0.7237 0,0 -0.33266,-0.0541 -0.93579,-0.18783 -0.59718,-0.14422 -1.49344,-0.31672 -2.58968,-0.6135 -1.10207,-0.28326 -2.42081,-0.66021 -3.91325,-1.12057 -1.47449,-0.48135 -3.13946,-1.02578 -4.95534,-1.61804 -1.80299,-0.60251 -3.73169,-1.28893 -5.74413,-2.05948 -1.99573,-0.80825 -4.13562,-1.555 -6.29543,-2.43145 -2.17437,-0.84625 -4.3611,-1.84538 -6.6323,-2.72981 -2.25634,-0.92268 -4.52044,-1.91618 -6.77431,-2.93511 -2.28307,-0.95139 -4.54434,-1.95831 -6.75511,-2.99553 -2.20188,-1.05796 -4.4274,-1.98028 -6.5259,-3.01949 -2.11288,-1.00279 -4.13118,-2.06104 -6.06844,-2.99413 -1.92817,-0.96495 -3.74214,-1.92825 -5.41167,-2.85597 -1.65407,-0.9505 -3.22625,-1.78577 -4.58182,-2.59377 -1.36048,-0.80133 -2.53828,-1.52973 -3.49955,-2.16042 -0.96466,-0.61538 -1.70317,-1.16686 -2.21472,-1.51348 -0.50913,-0.35888 -0.77423,-0.56968 -0.77423,-0.56968"
     style="fill:#12688d;fill-opacity:1;fill-rule:nonzero;stroke:none;stroke-width:0.0967287"
     id="path3403" /><path
     d="m 651.6335,391.87891 c -30.17182,14.02758 -46.56539,48.7664 -59.74075,78.02611 -0.63567,1.41316 1.39086,2.73329 2.0318,1.30851 13.00625,-28.88634 29.07955,-63.33028 58.85625,-77.17501 1.39867,-0.64995 0.24242,-2.80617 -1.14731,-2.1596 v 0"
     style="fill:#12688d;fill-opacity:1;fill-rule:nonzero;stroke:none;stroke-width:0.0967287"
     id="path3405" /><path
     d="m 642.77715,398.28207 c 0,0 0.13413,-0.52714 0.44636,-1.34727 0.15726,-0.40868 0.36399,-0.88269 0.61779,-1.40646 0.23889,-0.52735 0.58501,-1.07763 0.99229,-1.66411 0.40623,-0.58272 0.87411,-1.19636 1.40063,-1.81633 0.53024,-0.60146 1.10973,-1.16931 1.73959,-1.73887 1.22743,-1.18693 2.74355,-2.13741 4.28276,-3.03581 0.79241,-0.41201 1.6142,-0.77304 2.42864,-1.10472 0.41032,-0.16289 0.81671,-0.31873 1.22614,-0.45733 0.42311,-0.12003 0.84067,-0.23469 1.25527,-0.33192 0.82919,-0.20162 1.64241,-0.34672 2.41885,-0.4574 0.80505,-0.064 1.56909,-0.0856 2.27487,-0.0742 0.70823,0.0204 1.34433,0.0419 1.94721,0.17653 0.59339,0.11547 1.10294,0.24168 1.52109,0.3702 0.83778,0.25882 1.30531,0.48714 1.30531,0.48714 0,0 -0.35324,0.43169 -0.95111,1.04998 -0.29897,0.30759 -0.65912,0.65138 -1.06591,1.01543 -0.40891,0.33989 -0.85643,0.79444 -1.34866,1.2239 -0.49196,0.42854 -1.0255,0.85948 -1.59347,1.27467 -0.56484,0.44984 -1.15642,0.91999 -1.7863,1.34254 -0.63389,0.41211 -1.28962,0.83789 -1.95534,1.27077 -0.67314,0.42038 -1.37558,0.80003 -2.08465,1.1715 -0.70003,0.39569 -1.41823,0.75719 -2.14346,1.08384 -0.73395,0.31168 -1.44127,0.64897 -2.16438,0.91909 -0.70721,0.29138 -1.44557,0.51697 -2.12108,0.73546 -0.66634,0.22132 -1.32656,0.40373 -1.96109,0.55533 -1.27222,0.26539 -2.4477,0.56595 -3.29382,0.65492 -0.85402,0.10294 -1.38756,0.10305 -1.38756,0.10305"
     style="fill:#12688d;fill-opacity:1;fill-rule:nonzero;stroke:none;stroke-width:0.0967287"
     id="path3407" /><path
     d="m 633.90474,404.03396 c 0,0 -0.0865,-0.51586 -0.13003,-1.35432 0.003,-0.4257 -0.0746,-0.90425 -0.12952,-1.39807 -0.0531,-0.48611 -0.11121,-1.03505 -0.17512,-1.63375 -0.0319,-0.5745 -0.12805,-1.22812 -0.15413,-1.86515 -0.0528,-0.65858 -0.0868,-1.33073 -0.10589,-2.03806 -0.0377,-0.70802 -0.0271,-1.4286 -0.0145,-2.18025 0.0322,-0.7333 0.0541,-1.5178 0.13309,-2.27848 0.13874,-1.54876 0.3887,-3.12738 0.78855,-4.62996 0.40733,-1.50435 0.93454,-2.91844 1.56458,-4.10873 0.31228,-0.59243 0.62881,-1.12635 0.95941,-1.59058 0.32614,-0.46255 0.62083,-0.85316 0.91733,-1.16254 0.57701,-0.61862 0.9729,-0.92684 0.9729,-0.92684 0,0 0.2359,0.4815 0.53299,1.24537 0.29631,0.76668 0.67014,1.80754 1.01131,3.02614 0.1582,0.60036 0.33085,1.26542 0.46469,1.95117 0.12883,0.68929 0.26112,1.42253 0.34026,2.17807 0.17441,1.51713 0.19646,3.15961 0.0495,4.82835 -0.0916,0.84356 -0.19524,1.6701 -0.38328,2.5093 -0.16887,0.82779 -0.40011,1.65055 -0.69164,2.43214 -0.26892,0.78352 -0.62503,1.53695 -0.9829,2.22655 -0.40178,0.69334 -0.77068,1.32334 -1.23049,1.87719 -0.43684,0.5467 -0.86525,1.02859 -1.33467,1.43755 -0.45078,0.39943 -0.83938,0.71704 -1.20504,0.88758 -0.72187,0.38485 -1.19763,0.56724 -1.19763,0.56724"
     style="fill:#12688d;fill-opacity:1;fill-rule:nonzero;stroke:none;stroke-width:0.0967287"
     id="path3409" /><path
     d="m 628.86982,410.19173 c 0,0 0.37539,-0.40441 1.05381,-0.98344 0.67984,-0.5735 1.66784,-1.30472 2.88272,-2.0167 0.60801,-0.35274 1.27124,-0.70676 1.98078,-1.04132 0.7142,-0.32292 1.53059,-0.57741 2.36003,-0.82173 1.66511,-0.49999 3.49285,-0.84951 5.32898,-1.05354 1.82204,-0.0879 3.65567,-0.0344 5.36994,0.17926 0.85852,0.11592 1.68078,0.22263 2.46727,0.44794 0.78533,0.22592 1.52389,0.47598 2.19987,0.73573 1.35404,0.52264 2.45615,1.09997 3.21453,1.56772 0.75977,0.4733 1.17996,0.81892 1.17996,0.81892 0,0 -0.46153,0.32156 -1.24501,0.75472 -0.7837,0.42694 -1.88548,0.94833 -3.17759,1.40257 -0.64537,0.2248 -1.34039,0.43826 -2.06962,0.6248 -0.72806,0.16863 -1.50079,0.44471 -2.29299,0.61072 -1.58817,0.37208 -3.27436,0.59356 -4.97285,0.67481 -1.66799,0.17033 -3.34002,0.2322 -4.95713,0.0977 -0.81014,-0.0407 -1.58925,-0.17283 -2.3671,-0.24639 -0.78193,-0.0697 -1.52671,-0.17183 -2.21972,-0.29466 -1.38733,-0.2481 -2.56842,-0.59362 -3.40552,-0.8969 -0.83826,-0.30972 -1.33038,-0.56023 -1.33038,-0.56023"
     style="fill:#12688d;fill-opacity:1;fill-rule:nonzero;stroke:none;stroke-width:0.0967287"
     id="path3411" /><path
     d="m 622.38777,416.93847 c 0,0 -0.17563,-0.5496 -0.3606,-1.47271 -0.0739,-0.46907 -0.21209,-1.003 -0.34369,-1.5706 -0.12198,-0.56038 -0.25846,-1.19399 -0.40787,-1.88455 -0.13007,-0.67125 -0.27117,-1.39804 -0.41925,-2.16681 -0.13694,-0.75915 -0.28868,-1.55359 -0.40564,-2.36882 -0.15244,-0.82014 -0.24908,-1.6577 -0.36667,-2.52318 -0.0892,-0.85668 -0.21061,-1.74378 -0.26964,-2.62585 -0.15693,-1.7782 -0.23164,-3.58606 -0.19349,-5.33139 0.0391,-1.74505 0.18381,-3.4165 0.42311,-4.88408 0.23692,-1.46626 0.56102,-2.72378 0.85421,-3.61003 0.29908,-0.88956 0.54292,-1.40618 0.54292,-1.40618 0,0 0.39883,0.41353 0.97011,1.15312 0.56446,0.74256 1.29166,1.8102 1.99496,3.13692 0.70948,1.32251 1.38088,2.91194 1.92684,4.66877 0.54268,1.75785 0.91124,3.69966 1.08936,5.68042 0.0625,0.99953 0.11478,1.99283 0.0665,2.99273 -0.0227,0.9905 -0.12788,1.97994 -0.28658,2.92624 -0.15612,0.9512 -0.37549,1.86543 -0.63758,2.71948 -0.28466,0.85622 -0.56776,1.64758 -0.93349,2.36128 -0.18341,0.35362 -0.34452,0.69169 -0.52342,1.00484 -0.19205,0.31724 -0.3793,0.62475 -0.57127,0.89606 -0.37603,0.55019 -0.71425,0.99575 -1.05091,1.30595 -0.65439,0.64876 -1.09795,0.99835 -1.09795,0.99835"
     style="fill:#12688d;fill-opacity:1;fill-rule:nonzero;stroke:none;stroke-width:0.0967287"
     id="path3413" /><path
     d="m 616.55669,426.53743 c 0,0 0.28093,-0.54905 0.83618,-1.39597 0.2502,-0.434 0.7046,-0.87417 1.2114,-1.40735 0.52868,-0.55397 1.13227,-1.01732 1.82777,-1.55127 0.69743,-0.53024 1.48974,-0.96985 2.3497,-1.45793 0.86396,-0.40414 1.79619,-0.87289 2.779,-1.18302 0.4895,-0.17809 0.99421,-0.33621 1.50655,-0.49297 0.51245,-0.12915 1.03404,-0.25546 1.5619,-0.36858 1.05685,-0.24151 2.13605,-0.36428 3.21963,-0.48189 1.08227,-0.071 2.16856,-0.13163 3.23384,-0.0833 1.06686,0.018 2.11434,0.13234 3.123,0.27436 1.00839,0.14293 1.97713,0.37265 2.88807,0.59872 0.91124,0.26701 1.76316,0.52179 2.54127,0.84656 0.77671,0.31927 1.47846,0.62859 2.09022,0.97027 0.61218,0.3367 1.13529,0.63253 1.55697,0.93777 0.84334,0.59312 1.29308,1.00303 1.29308,1.00303 0,0 -0.56512,0.24759 -1.49968,0.55635 -0.93469,0.31279 -2.23638,0.69565 -3.75211,1.06325 -0.7552,0.16218 -1.57307,0.3738 -2.42248,0.52261 -0.85188,0.16892 -1.74342,0.32666 -2.65822,0.46797 -1.83301,0.28053 -3.76051,0.50422 -5.68372,0.65673 -0.95404,0.10055 -1.92362,0.13298 -2.85984,0.20944 -0.47106,0.0328 -0.94018,0.0518 -1.40587,0.0657 -0.45908,0.0293 -0.91435,0.0557 -1.36924,0.0597 -0.91296,0.0122 -1.76534,0.0779 -2.62073,0.063 -0.81794,0.0498 -1.64634,0.0137 -2.38433,0.0454 -0.75676,0.007 -1.44979,0.0133 -2.06466,0.0188 -0.61392,0.0232 -1.18885,-0.0345 -1.69349,0.0287 -0.99713,0.0627 -1.60422,0.034 -1.60422,0.034"
     style="fill:#12688d;fill-opacity:1;fill-rule:nonzero;stroke:none;stroke-width:0.0967287"
     id="path3415" /><path
     d="m 611.23981,433.91677 c 0,0 -0.3483,-0.49999 -0.83115,-1.37858 -0.47797,-0.87812 -1.07413,-2.13284 -1.6394,-3.62917 -0.5683,-1.49622 -1.10715,-3.23247 -1.55759,-5.07609 -0.46942,-1.84338 -0.81956,-3.79782 -1.11135,-5.73625 -0.13962,-0.97033 -0.27049,-1.93284 -0.37072,-2.88381 -0.12538,-0.93631 -0.17762,-1.88774 -0.27032,-2.77411 -0.0627,-0.90056 -0.12405,-1.77108 -0.18129,-2.59643 -0.003,-0.42889 -0.0503,-0.81808 -0.0773,-1.2032 -0.021,-0.39553 -0.0407,-0.77837 -0.0598,-1.14571 -0.0598,-0.73935 -0.11423,-1.41681 -0.16159,-2.01754 -0.0842,-0.58355 -0.12876,-1.16606 -0.20216,-1.62987 -0.1831,-0.89092 -0.30454,-1.54009 -0.30454,-1.54009 0,0 0.54063,0.12562 1.51866,0.58898 0.46276,0.24854 0.94887,0.62172 1.53982,1.08559 0.5518,0.47522 1.08476,1.06918 1.67273,1.75368 0.49537,0.68747 1.08896,1.47479 1.53823,2.32767 0.4688,0.85792 0.93527,1.78351 1.29648,2.75306 0.78218,1.94642 1.2906,4.0663 1.61146,6.19344 0.2991,2.12651 0.40596,4.25573 0.28486,6.24694 -0.0979,1.99025 -0.38793,3.83926 -0.76927,5.41699 -0.37857,1.57861 -0.84575,2.88674 -1.23325,3.803 -0.39509,0.91493 -0.69258,1.44149 -0.69258,1.44149"
     style="fill:#12688d;fill-opacity:1;fill-rule:nonzero;stroke:none;stroke-width:0.0967287"
     id="path3417" /><path
     d="m 606.70467,442.16522 c 0,0 0.37333,-0.46018 1.06368,-1.14068 0.34583,-0.33905 0.77267,-0.72443 1.27113,-1.14074 0.48879,-0.4244 1.0771,-0.84452 1.7572,-1.26479 0.67313,-0.42036 1.42026,-0.84845 2.22948,-1.26342 0.80907,-0.41093 1.67084,-0.74428 2.5806,-1.07807 0.90588,-0.34111 1.85149,-0.66073 2.84603,-0.85799 0.98956,-0.21818 2.00174,-0.40391 3.01953,-0.55306 1.02946,-0.10271 2.07132,-0.14031 3.09166,-0.15499 0.51271,-4.2e-4 1.01537,-0.0111 1.52039,0.0258 0.50771,0.0521 1.00858,0.10727 1.49941,0.17665 0.9827,0.14213 1.91997,0.29674 2.80883,0.53029 0.89337,0.27373 1.72303,0.5716 2.47556,0.87421 0.3747,0.16204 0.73234,0.30347 1.06641,0.46109 0.33369,0.16254 0.6497,0.36259 0.93905,0.54417 0.58014,0.36865 1.06933,0.7101 1.45983,1.01282 0.77926,0.60797 1.17967,1.02303 1.17967,1.02303 0,0 -0.56358,0.23174 -1.47077,0.52139 -0.45273,0.14357 -0.98861,0.29202 -1.58194,0.43894 -0.58897,0.11768 -1.25534,0.32166 -1.97075,0.52268 -0.71258,0.18765 -1.46863,0.35969 -2.25295,0.50165 -0.78984,0.16467 -1.62641,0.39561 -2.47696,0.53538 -0.42615,0.0783 -0.85803,0.1415 -1.29392,0.20148 -0.43914,0.0783 -0.88369,0.1581 -1.33097,0.23698 -0.89755,0.1507 -1.80646,0.2469 -2.72245,0.33984 -0.91578,0.1308 -1.83717,0.22513 -2.75207,0.28266 -0.91726,0.0344 -1.82004,0.13345 -2.71214,0.14598 -0.88335,0.0449 -1.77149,0.002 -2.59037,0.002 -0.81938,-0.005 -1.61314,-0.0434 -2.36062,-0.10451 -1.4885,-0.15897 -2.84841,-0.25463 -3.78322,-0.45646 -0.94744,-0.18533 -1.50933,-0.36247 -1.50933,-0.36247"
     style="fill:#12688d;fill-opacity:1;fill-rule:nonzero;stroke:none;stroke-width:0.0967287"
     id="path3419" /><path
     d="m 602.316,449.78007 c 0,0 -0.3988,-0.39617 -0.97284,-1.1121 -0.57402,-0.71592 -1.30857,-1.70518 -2.05905,-2.93624 -0.75052,-1.22393 -1.51092,-2.66536 -2.18872,-4.23227 -0.70197,-1.55909 -1.28524,-3.25497 -1.79224,-4.96297 -0.49596,-1.71171 -0.89152,-3.44338 -1.1656,-5.09354 -0.13708,-0.82864 -0.23476,-1.63794 -0.33058,-2.40478 -0.0733,-0.78643 -0.15546,-1.5031 -0.19103,-2.20841 -0.0411,-0.69272 -0.084,-1.32678 -0.0918,-1.92647 -0.0317,-0.56831 -0.0471,-1.09582 -0.0473,-1.55025 -0.0455,-0.85949 -0.0508,-1.45741 -0.0508,-1.45741 0,0 0.50404,0.16307 1.35096,0.63503 0.39054,0.24655 0.84457,0.57445 1.35571,0.98264 0.46978,0.41306 0.99632,0.907 1.5108,1.4748 0.49126,0.56877 1.03053,1.21063 1.50068,1.90969 0.48268,0.70395 0.95882,1.45898 1.37938,2.26212 0.86552,1.60466 1.56462,3.38748 2.09516,5.20897 0.52135,1.82575 0.87954,3.68876 1.01685,5.47623 0.15614,1.781 0.11864,3.47855 -0.0506,4.9525 -0.1677,1.46832 -0.4621,2.73708 -0.74089,3.6043 -0.29046,0.86976 -0.52795,1.37815 -0.52795,1.37815"
     style="fill:#12688d;fill-opacity:1;fill-rule:nonzero;stroke:none;stroke-width:0.0967287"
     id="path3421" /><path
     d="m 599.38689,456.75875 c 0,0 0.43042,-0.36999 1.19468,-0.88975 0.38292,-0.25914 0.85029,-0.5452 1.38801,-0.84723 0.5359,-0.30261 1.15622,-0.60048 1.79314,-0.93917 0.64471,-0.32402 1.34002,-0.6436 2.07388,-0.94102 0.71978,-0.28646 1.5409,-0.59259 2.37852,-0.84458 0.84534,-0.27203 1.69359,-0.50546 2.62683,-0.68699 0.92012,-0.18461 1.86109,-0.33718 2.80618,-0.45173 0.97295,-0.0794 1.95657,-0.11563 2.92034,-0.1172 0.95332,-0.0313 1.94513,0.12075 2.87507,0.24859 0.93557,0.14999 1.82534,0.28579 2.67306,0.5903 0.84495,0.27919 1.62791,0.57997 2.33468,0.88571 0.71068,0.28145 1.33112,0.69422 1.87015,1.05318 0.53793,0.36605 0.99211,0.70458 1.35506,1.00594 0.72567,0.60363 1.09973,1.01664 1.09973,1.01664 0,0 -0.53424,0.23369 -1.40117,0.52561 -0.43279,0.14363 -0.94601,0.293 -1.51637,0.4399 -0.57143,0.1507 -1.19387,0.25291 -1.87477,0.47281 -0.67521,0.18593 -1.39058,0.35531 -2.13177,0.4963 -0.73414,0.0952 -1.5225,0.34635 -2.32077,0.48066 -0.8021,0.15889 -1.60654,0.23124 -2.4643,0.39633 -0.8491,0.13811 -1.70937,0.23511 -2.57845,0.30685 -0.88928,0.10427 -1.78327,0.1724 -2.66799,0.20458 -0.87512,0.0228 -1.79669,0.0549 -2.66895,0.008 -0.88012,-0.0226 -1.71608,-0.0917 -2.57311,-0.1918 -0.84208,-0.10366 -1.63703,-0.2397 -2.36804,-0.3937 -1.45847,-0.30996 -2.63385,-0.79462 -3.48704,-1.15698 -0.84628,-0.37963 -1.33661,-0.67143 -1.33661,-0.67143"
     style="fill:#12688d;fill-opacity:1;fill-rule:nonzero;stroke:none;stroke-width:0.0967287"
     id="path3423" /><path
     d="m 570.67951,490.15926 c -22.09971,25.4328 -46.6998,48.26227 -76.48634,63.84884 -1.36797,0.71661 -0.21677,2.87435 1.14759,2.1607 29.95645,-15.67585 54.74932,-38.62938 76.97927,-64.21272 1.01412,-1.16626 -0.62144,-2.96972 -1.64052,-1.79682 v 0"
     style="fill:#12688d;fill-opacity:1;fill-rule:nonzero;stroke:none;stroke-width:0.0967287"
     id="path3425" /><path
     d="m 501.77923,551.47508 c 0,0 -0.18984,0.4874 -0.58341,1.22719 -0.39703,0.73361 -1.00591,1.70379 -1.81677,2.71861 -0.80789,1.01777 -1.81978,2.08055 -3.00039,3.06657 -1.16656,1.00671 -2.50524,1.90801 -3.90154,2.69957 -1.44935,0.75471 -2.9726,1.38032 -4.45882,1.81731 -0.74499,0.21949 -1.47191,0.39748 -2.19146,0.52367 -0.74271,0.0966 -1.45384,0.15196 -2.11594,0.17348 -1.32716,0.0422 -2.4602,-0.069 -3.26388,-0.20977 -0.80591,-0.14659 -1.28161,-0.3052 -1.28161,-0.3052 0,0 0.25547,-0.47323 0.72836,-1.17107 0.47486,-0.69112 1.1688,-1.589 2.03452,-2.49289 0.43385,-0.44959 0.91014,-0.90646 1.42285,-1.34999 0.51509,-0.46423 1.05797,-0.97807 1.64324,-1.43589 1.16581,-0.93546 2.47569,-1.76707 3.85198,-2.48416 1.38617,-0.76407 2.82924,-1.41864 4.27127,-1.87133 1.42985,-0.46873 2.84811,-0.77771 4.12089,-0.93568 1.27159,-0.16043 2.39785,-0.16882 3.21537,-0.12076 0.82093,0.0542 1.32532,0.15029 1.32532,0.15029"
     style="fill:#12688d;fill-opacity:1;fill-rule:nonzero;stroke:none;stroke-width:0.0967287"
     id="path3427" /><path
     d="m 511.06912,546.86639 c 0,0 0.0577,0.11483 0.14011,0.32211 0.0706,0.20363 0.21761,0.51666 0.31898,0.88705 0.25199,0.75805 0.52554,1.81277 0.68765,3.02706 0.16993,1.21761 0.22285,2.59296 0.1407,4.02245 -0.0856,1.42944 -0.33931,2.90376 -0.71946,4.33891 -0.38832,1.43265 -0.90711,2.82382 -1.54569,4.08192 -0.64005,1.25763 -1.37258,2.38964 -2.12384,3.32081 -0.37731,0.46609 -0.74831,0.8841 -1.10419,1.24759 -0.34883,0.36463 -0.70849,0.66569 -0.99253,0.91665 -0.27222,0.25565 -0.5527,0.43626 -0.71554,0.56754 -0.17318,0.12808 -0.28021,0.19192 -0.28021,0.19192 0,0 -0.058,-0.115 -0.14114,-0.32247 -0.0716,-0.20392 -0.21897,-0.5171 -0.32147,-0.88885 -0.11539,-0.37472 -0.26913,-0.83482 -0.3824,-1.34267 -0.12011,-0.51087 -0.22528,-1.0765 -0.31157,-1.68624 -0.17119,-1.21698 -0.22559,-2.59279 -0.13969,-4.02212 0.0874,-1.42889 0.34271,-2.90171 0.72854,-4.3351 0.3941,-1.43084 0.91416,-2.82265 1.55457,-4.08019 0.64346,-1.25557 1.37442,-2.38804 2.12492,-3.32047 0.743,-0.93373 1.49968,-1.66924 2.09105,-2.166 0.27012,-0.25531 0.5506,-0.43589 0.7116,-0.56775 0.17355,-0.12797 0.27947,-0.19214 0.27947,-0.19214"
     style="fill:#12688d;fill-opacity:1;fill-rule:nonzero;stroke:none;stroke-width:0.0967287"
     id="path3429" /><path
     d="m 526.51778,534.63584 c 0,0 0.19583,0.63141 0.41435,1.7079 0.213,1.07474 0.43265,2.58957 0.53393,4.37095 0.05,0.88945 0.075,1.84674 0.0637,2.85098 0.003,0.99843 -0.16106,2.07482 -0.30587,3.16632 -0.15177,1.09855 -0.35628,2.22465 -0.59141,3.36374 -0.24217,1.13689 -0.52212,2.28454 -0.83664,3.42046 -0.3373,1.09212 -0.70592,2.17452 -1.10259,3.22884 -0.40007,1.05223 -0.83301,2.07488 -1.28155,3.05392 -0.90234,1.96663 -1.86351,3.72002 -2.80788,5.19683 -0.94242,1.47843 -1.86308,2.67362 -2.56672,3.49499 -0.7095,0.81853 -1.18585,1.2672 -1.18585,1.2672 0,0 -0.14926,-0.64128 -0.28539,-1.7302 -0.13082,-1.08806 -0.23292,-2.61752 -0.19323,-4.41137 0.0362,-1.79391 0.21618,-3.85981 0.57728,-5.96861 0.17877,-1.06159 0.39346,-2.14675 0.65201,-3.2357 0.26101,-1.0892 0.5617,-2.18244 0.89248,-3.26635 0.29732,-1.05754 0.6284,-2.10462 0.98836,-3.12843 0.3673,-1.02054 0.75591,-2.02018 1.17726,-2.97903 0.39611,-0.97384 0.89265,-1.85733 1.27421,-2.78461 0.40215,-0.91172 0.81829,-1.76602 1.22846,-2.54865 0.82403,-1.56308 1.64472,-2.83521 2.27883,-3.7108 0.63978,-0.87484 1.07618,-1.35837 1.07618,-1.35837"
     style="fill:#12688d;fill-opacity:1;fill-rule:nonzero;stroke:none;stroke-width:0.0967287"
     id="path3431" /><path
     d="m 537.57636,526.15014 c 0,0 0.22556,0.61716 0.4953,1.67271 0.27549,1.0492 0.52972,2.56041 0.7681,4.29138 0.11304,0.86612 0.2076,1.79287 0.26996,2.76276 0.0427,0.96682 0.13888,1.99008 0.14876,3.03251 0.0364,1.0435 -0.0115,2.11509 0.006,3.19347 -0.009,1.07742 -0.0533,2.16743 -0.13306,3.25356 -0.0396,1.08325 -0.10113,2.1628 -0.20509,3.22715 -0.13053,1.06734 -0.19114,2.10937 -0.31347,3.12618 -0.0949,1.0161 -0.3145,2.01195 -0.4066,2.95132 -0.12538,0.94234 -0.27867,1.84336 -0.44776,2.68639 -0.19294,0.84482 -0.33283,1.62339 -0.47495,2.32265 -0.15077,0.70067 -0.30291,1.32126 -0.45027,1.84022 -0.29707,1.03821 -0.53594,1.6595 -0.53594,1.6595 0,0 -0.40053,-0.50186 -0.97954,-1.42762 -0.28824,-0.46401 -0.61232,-1.03613 -0.95971,-1.70429 -0.17899,-0.33318 -0.34219,-0.6931 -0.52939,-1.07273 -0.17863,-0.38104 -0.30736,-0.7895 -0.47435,-1.21389 -0.30482,-0.85306 -0.60597,-1.7877 -0.88707,-2.78858 -0.30092,-1.0009 -0.44671,-2.06397 -0.62553,-3.17207 -0.16029,-1.1064 -0.32508,-2.26117 -0.33889,-3.42223 -0.0336,-1.16415 -0.0365,-2.34946 0.005,-3.5301 0.0901,-1.17178 0.21608,-2.33956 0.37438,-3.48408 0.14756,-1.14885 0.40721,-2.24868 0.66885,-3.31419 0.26594,-1.0642 0.53776,-2.08572 0.88744,-3.03922 0.34044,-0.9533 0.6979,-1.84517 1.05356,-2.65797 0.70778,-1.62974 1.49398,-2.89315 2.07564,-3.79927 0.59655,-0.8954 1.00874,-1.39357 1.00874,-1.39357"
     style="fill:#12688d;fill-opacity:1;fill-rule:nonzero;stroke:none;stroke-width:0.0967287"
     id="path3433" /><path
     d="m 550.79728,513.57039 c 0,0 0.25963,0.59605 0.58717,1.62256 0.16228,0.5138 0.33332,1.13346 0.50369,1.84172 0.16522,0.70696 0.31541,1.51387 0.55212,2.31621 0.20675,0.81447 0.40161,1.67738 0.567,2.57299 0.12676,0.88059 0.40225,1.86545 0.55335,2.84545 0.19278,0.98681 0.27656,1.99906 0.49186,3.02857 0.17453,1.02914 0.31589,2.07454 0.42073,3.12394 0.16113,1.04848 0.29937,2.10106 0.39338,3.14712 0.0674,1.04798 0.20426,2.08385 0.27099,3.09999 0.0914,1.0136 0.0718,2.01423 0.14004,2.96551 0.0397,0.95365 0.0441,1.86984 0.0231,2.72812 -0.0609,1.71994 -0.12601,3.19244 -0.28154,4.25716 -0.145,1.06286 -0.29556,1.70029 -0.29556,1.70029 0,0 -0.46848,-0.43512 -1.17025,-1.24882 -0.68062,-0.82144 -1.64418,-2.00111 -2.51804,-3.53892 -0.44194,-0.76691 -0.89271,-1.61105 -1.33464,-2.51884 -0.45568,-0.90081 -0.80811,-1.90543 -1.18114,-2.93786 -0.35844,-1.03813 -0.73223,-2.11165 -0.96272,-3.24899 -0.25018,-1.13016 -0.47221,-2.28632 -0.65195,-3.44879 -0.11606,-1.17846 -0.19501,-2.35971 -0.2379,-3.52266 -0.0252,-0.58059 -0.0361,-1.15675 0.0165,-1.73264 0.0329,-0.57279 0.0652,-1.13762 0.12897,-1.6927 0.11618,-1.11568 0.20358,-2.15862 0.46974,-3.1962 0.23771,-1.02392 0.50087,-1.97563 0.77125,-2.8363 0.25371,-0.87807 0.59488,-1.59425 0.91881,-2.23821 0.32156,-0.64366 0.62493,-1.20311 0.89607,-1.66024 0.54531,-0.91533 0.92903,-1.42845 0.92903,-1.42845"
     style="fill:#12688d;fill-opacity:1;fill-rule:nonzero;stroke:none;stroke-width:0.0967287"
     id="path3435" /><path
     d="m 516.38834,541.02641 c 0,0 -0.41201,0.36345 -1.14428,0.86966 -0.36616,0.25309 -0.8131,0.53117 -1.32804,0.82393 -0.51616,0.29137 -1.08509,0.60006 -1.77144,0.84891 -0.67521,0.25637 -1.41925,0.50266 -2.2177,0.7239 -0.80751,0.23273 -1.62658,0.37579 -2.49142,0.49518 -0.85992,0.12252 -1.76219,0.23914 -2.66174,0.23406 -0.90283,0.0102 -1.82045,-0.0147 -2.73578,-0.0768 -1.8118,-0.1846 -3.62314,-0.49261 -5.25681,-1.02227 -1.64754,-0.50433 -3.13613,-1.15546 -4.38997,-1.84411 -1.25692,-0.67635 -2.26348,-1.40581 -2.96624,-1.96662 -0.7001,-0.57017 -1.08767,-0.97002 -1.08767,-0.97002 0,0 0.48365,-0.26059 1.30854,-0.58595 0.82298,-0.32495 1.99159,-0.68065 3.35302,-0.97353 1.36347,-0.29018 2.92812,-0.47724 4.56242,-0.57226 0.81852,-0.0344 1.65912,-0.0383 2.49945,-0.0291 0.84166,0.0126 1.69395,0.0787 2.53998,0.14985 0.84285,0.0621 1.6836,0.16021 2.51125,0.29208 0.8299,0.14992 1.63639,0.23849 2.42613,0.43212 0.78624,0.15682 1.56335,0.38842 2.26834,0.55681 0.71391,0.19057 1.40045,0.4104 2.04527,0.63982 0.6687,0.24295 1.28219,0.46465 1.82529,0.66153 0.55493,0.21381 1.04035,0.42442 1.44265,0.62053 0.80397,0.39306 1.26876,0.69227 1.26876,0.69227"
     style="fill:#12688d;fill-opacity:1;fill-rule:nonzero;stroke:none;stroke-width:0.0967287"
     id="path3437" /><path
     d="m 531.17495,529.95279 c 0,0 -0.37837,0.40959 -1.06422,0.99756 -0.33037,0.30401 -0.7855,0.59998 -1.34376,0.92017 -0.2752,0.16486 -0.58267,0.31872 -0.90333,0.48177 -0.31426,0.14873 -0.65029,0.27532 -1.00462,0.42385 -0.7112,0.29527 -1.49239,0.50246 -2.335,0.69983 -0.84018,0.17768 -1.73501,0.30067 -2.66072,0.35486 -0.92348,0.0569 -1.88202,0.0509 -2.83758,-0.0458 -0.96568,-0.0685 -1.91729,-0.2561 -2.87132,-0.45163 -1.88912,-0.44954 -3.71146,-1.1295 -5.31744,-1.98652 -0.79945,-0.43452 -1.55157,-0.90035 -2.23929,-1.38401 -0.68406,-0.49372 -1.31279,-0.9877 -1.86313,-1.49717 -1.11027,-0.99847 -1.9275,-2.00313 -2.45869,-2.75887 -0.52706,-0.76774 -0.78321,-1.26776 -0.78321,-1.26776 0,0 0.55101,-0.0938 1.43786,-0.15076 0.8869,-0.057 2.10257,-0.0704 3.48387,-0.01 0.68604,0.0451 1.42184,0.0863 2.17706,0.16708 0.75266,0.0903 1.5432,0.16368 2.33393,0.29637 1.59227,0.23195 3.22724,0.56291 4.83765,0.94446 0.8049,0.16668 1.60253,0.40259 2.38707,0.58748 0.78446,0.2206 1.55305,0.41073 2.30057,0.65559 0.74715,0.20797 1.47517,0.44886 2.17355,0.66808 0.70967,0.2342 1.38141,0.45558 2.00063,0.65969 0.63887,0.22856 1.22449,0.43757 1.74344,0.62184 0.52582,0.19868 1.01782,0.39705 1.45291,0.52981 0.85299,0.30004 1.35384,0.54404 1.35384,0.54404"
     style="fill:#12688d;fill-opacity:1;fill-rule:nonzero;stroke:none;stroke-width:0.0967287"
     id="path3439" /><path
     d="m 546.31826,517.62764 c 0,0 -0.53194,0.31812 -1.46055,0.74511 -0.46382,0.21159 -1.0277,0.44224 -1.67362,0.6791 -0.32323,0.12555 -0.66648,0.2284 -1.02848,0.35316 -0.36868,0.11139 -0.77831,0.16417 -1.20008,0.25306 -0.84753,0.1489 -1.78182,0.278 -2.78213,0.36933 -0.50961,0.0688 -1.01011,0.0617 -1.51042,0.0568 -0.50772,0.007 -1.02109,-0.0326 -1.54847,-0.0519 -1.05007,-0.0579 -2.15026,-0.11796 -3.21918,-0.34501 -1.07717,-0.20612 -2.16717,-0.45093 -3.24709,-0.73243 -1.05925,-0.33354 -2.10335,-0.71503 -3.12059,-1.11696 -1.02409,-0.38874 -1.98024,-0.88717 -2.89555,-1.38722 -0.91341,-0.50355 -1.79252,-1.00361 -2.58144,-1.55741 -0.78785,-0.55755 -1.51554,-1.1169 -2.17236,-1.65732 -2.62071,-2.17503 -3.99041,-4.29427 -3.99041,-4.29427 0,0 0.61887,-0.0789 1.63826,-0.10195 1.02167,-0.0327 2.41449,0.0722 4.04098,0.21265 0.80845,0.0831 1.6689,0.19957 2.56028,0.35628 0.88892,0.16719 1.82788,0.29373 2.76919,0.51085 0.47663,0.0895 0.94661,0.21878 1.42495,0.3394 0.47848,0.1268 0.9681,0.20602 1.45061,0.33408 0.96824,0.23566 1.93723,0.52262 2.89893,0.8226 0.96737,0.25378 1.92514,0.54441 2.86332,0.86673 0.93392,0.3608 1.86213,0.60045 2.75497,0.93425 0.88725,0.28921 1.77483,0.72346 2.56549,0.97967 0.80213,0.29546 1.57272,0.61695 2.29757,0.94566 0.36891,0.16944 0.7224,0.3331 1.05848,0.48827 0.35802,0.14462 0.69802,0.26528 1.01737,0.40811 0.63838,0.27132 1.19458,0.53145 1.65222,0.76821 0.91566,0.47565 1.43777,0.8212 1.43777,0.8212"
     style="fill:#12688d;fill-opacity:1;fill-rule:nonzero;stroke:none;stroke-width:0.0967287"
     id="path3441" /><path
     d="m 555.90009,507.32339 c 0,0 -0.58379,0.22136 -1.5838,0.48127 -0.99806,0.25336 -2.40809,0.52807 -4.06964,0.69125 -0.83079,0.0805 -1.72539,0.13723 -2.66442,0.15872 -0.92709,0.0517 -1.95236,-0.0852 -2.98878,-0.21134 -1.04312,-0.1292 -2.11591,-0.31253 -3.20193,-0.52752 -1.08388,-0.22248 -2.18039,-0.48257 -3.2643,-0.78267 -1.04695,-0.37952 -2.08365,-0.79261 -3.09131,-1.23347 -1.00658,-0.44461 -1.9815,-0.92127 -2.91027,-1.4122 -0.92517,-0.49801 -1.82425,-0.9675 -2.60094,-1.57367 -0.78878,-0.58026 -1.51636,-1.16205 -2.17395,-1.72315 -1.31367,-1.12581 -2.33493,-2.18655 -3.01725,-2.98197 -0.67957,-0.80274 -1.02959,-1.32469 -1.02959,-1.32469 0,0 0.6304,-0.0783 1.66714,-0.10219 1.03431,-0.0195 2.46482,0.0296 4.09319,0.23598 0.81384,0.10513 1.67948,0.24572 2.5763,0.42863 0.88482,0.22108 1.85257,0.32078 2.81195,0.5343 0.96493,0.19688 1.94604,0.43142 2.92813,0.70918 0.98092,0.28148 1.96363,0.60227 2.93651,0.95576 0.98305,0.27297 1.95628,0.57758 2.90766,0.91523 0.94997,0.3454 1.88091,0.71244 2.77692,1.11564 0.90781,0.38133 1.73609,0.85848 2.62676,1.20796 0.86668,0.38084 1.67826,0.7783 2.42344,1.17255 1.48812,0.79188 2.70374,1.59019 3.54372,2.20983 0.83837,0.62632 1.30445,1.05659 1.30445,1.05659"
     style="fill:#12688d;fill-opacity:1;fill-rule:nonzero;stroke:none;stroke-width:0.0967287"
     id="path3443" /><path
     d="m 581.00473,478.6876 c 0.28813,-37.8594 -33.06108,-44.41545 -61.22628,-52.32318 8.42778,33.97441 30.57474,46.56925 59.63676,55.57367"
     style="fill:#6dcdb9;fill-opacity:1;fill-rule:nonzero;stroke:none;stroke-width:0.0967287"
     id="path3445" /><path
     d="m 581.9592,478.71173 c -0.0607,-15.61666 -6.19128,-28.65938 -19.03121,-37.36998 -12.72762,-8.63396 -28.42222,-11.8733 -42.88244,-15.91557 -0.68651,-0.19226 -1.38254,0.42723 -1.19313,1.16693 3.71519,14.48642 10.58062,27.44949 21.85769,37.20534 11.00473,9.52035 24.88035,14.83642 38.438,19.07789 1.18115,0.3698 1.71438,-1.50674 0.53421,-1.87649 -12.70364,-3.97378 -25.22652,-8.89219 -35.9333,-17.18794 -12.03909,-9.32726 -19.26767,-22.95113 -23.04419,-37.67606 -0.39792,0.38924 -0.79558,0.77756 -1.19348,1.16682 13.44673,3.75888 27.35757,6.92849 39.65144,13.97721 13.87226,7.9533 20.82437,21.27811 20.88776,37.38263 0.005,1.26143 1.91374,1.31688 1.90865,0.0492 v 0"
     style="fill:#12688d;fill-opacity:1;fill-rule:nonzero;stroke:none;stroke-width:0.0967287"
     id="path3447" /><path
     d="m 520.38542,428.55773 c 10.71624,6.74369 20.82382,14.60978 30.55759,22.76434 10.07145,8.43788 21.96228,18.1123 28.0547,30.18752 0.57005,1.12922 2.24224,0.20157 1.67348,-0.92519 -5.86407,-11.62159 -16.92761,-20.79568 -26.51776,-29.04665 -10.34707,-8.90105 -21.25235,-17.39307 -32.76634,-24.63918 -1.05515,-0.66386 -2.05545,0.99574 -1.00168,1.65915 v 0"
     style="fill:#12688d;fill-opacity:1;fill-rule:nonzero;stroke:none;stroke-width:0.0967287"
     id="path3449" /><path
     d="m 535.79845,431.86809 c 1.21818,2.63078 1.73198,5.50176 2.51191,8.28061 0.25517,0.91119 1.6459,0.57429 1.38885,-0.34261 -0.81482,-2.90399 -1.37275,-5.88258 -2.64553,-8.63238 -0.39924,-0.86087 -1.65207,-0.16269 -1.25524,0.69437 v 0"
     style="fill:#12688d;fill-opacity:1;fill-rule:nonzero;stroke:none;stroke-width:0.0967287"
     id="path3451" /><path
     d="m 545.3728,435.18986 c 0.96199,3.86343 0.86213,7.83073 1.22755,11.76863 0.0864,0.93341 1.51963,0.98236 1.43215,0.0363 -0.37744,-4.06414 -0.2778,-8.15914 -1.27086,-12.14753 -0.22909,-0.91945 -1.61896,-0.58024 -1.38884,0.3426 v 0"
     style="fill:#12688d;fill-opacity:1;fill-rule:nonzero;stroke:none;stroke-width:0.0967287"
     id="path3453" /><path
     d="m 554.96764,439.17041 c 0.54375,5.01111 0.45709,10.05251 0.86148,15.07148 0.0755,0.93618 1.50871,0.98404 1.43188,0.0373 -0.40449,-5.02001 -0.3181,-10.0605 -0.86148,-15.07148 -0.10099,-0.92875 -1.53479,-0.97993 -1.43188,-0.0373 v 0"
     style="fill:#12688d;fill-opacity:1;fill-rule:nonzero;stroke:none;stroke-width:0.0967287"
     id="path3455" /><path
     d="m 522.92551,437.60568 c 3.35559,-0.18349 6.66681,-0.81055 10.03498,-0.80433 0.92082,0.002 0.94671,-1.4689 0.021,-1.46983 -3.36955,-0.007 -6.67877,0.62 -10.03497,0.80431 -0.91394,0.0496 -0.94476,1.52059 -0.021,1.46986 v 0"
     style="fill:#12688d;fill-opacity:1;fill-rule:nonzero;stroke:none;stroke-width:0.0967287"
     id="path3457" /><path
     d="m 527.73133,446.41222 c 5.06122,-0.54839 10.05898,-1.51668 15.10038,-2.206 0.91301,-0.12449 0.5587,-1.55341 -0.34755,-1.42989 -4.91846,0.67227 -9.79434,1.63137 -14.73179,2.16605 -0.90251,0.0971 -0.93742,1.5688 -0.021,1.46984 v 0"
     style="fill:#12688d;fill-opacity:1;fill-rule:nonzero;stroke:none;stroke-width:0.0967287"
     id="path3459" /><path
     d="m 551.97502,450.94141 c -5.46898,2.38953 -11.66912,4.55764 -17.7173,3.84356 -0.91716,-0.10856 -0.93289,1.36295 -0.0207,1.46996 6.30996,0.74518 12.72426,-1.52504 18.42641,-4.01692 0.8476,-0.37042 0.15141,-1.66328 -0.68845,-1.2966 v 0"
     style="fill:#12688d;fill-opacity:1;fill-rule:nonzero;stroke:none;stroke-width:0.0967287"
     id="path3461" /><path
     d="m 562.6657,459.50275 c -6.57114,0.38176 -12.68113,2.74319 -18.93703,4.58976 -0.88107,0.25994 -0.54033,1.69286 0.348,1.42997 6.12645,-1.80804 12.13096,-4.17561 18.56806,-4.5499 0.91329,-0.0529 0.94482,-1.52363 0.021,-1.46984 v 0"
     style="fill:#12688d;fill-opacity:1;fill-rule:nonzero;stroke:none;stroke-width:0.0967287"
     id="path3463" /><path
     d="m 569.54776,467.44762 c -3.77954,1.65205 -8.9229,3.37977 -13.07858,2.72829 -0.91121,-0.14347 -0.92337,1.32811 -0.021,1.46985 4.42617,0.69445 9.78103,-1.1495 13.78834,-2.90249 0.84759,-0.3704 0.15104,-1.66338 -0.68872,-1.29565 v 0"
     style="fill:#12688d;fill-opacity:1;fill-rule:nonzero;stroke:none;stroke-width:0.0967287"
     id="path3465" /><path
     d="m 589.64991,497.36122 c -18.80582,26.59424 -3.35822,45.07415 9.51995,69.31483 14.96386,-15.67346 19.32311,-59.78709 -5.58723,-69.11735"
     style="fill:#6dcdb9;fill-opacity:1;fill-rule:nonzero;stroke:none;stroke-width:0.0967287"
     id="path3467" /><path
     d="m 588.83728,496.83886 c -7.16235,10.40454 -10.62145,21.86154 -7.69421,34.55495 2.96932,12.88204 11.05855,24.28849 17.19006,35.74485 0.28426,0.5322 1.06625,0.71731 1.4927,0.25625 15.96402,-17.25653 20.14451,-60.37799 -5.97611,-70.77445 -1.15296,-0.45832 -1.67827,1.42195 -0.5342,1.87649 24.63292,9.80381 20.10711,51.34292 5.19746,67.45997 0.49807,0.0859 0.99526,0.17156 1.49362,0.25654 -5.5828,-10.43074 -12.24965,-20.49695 -16.02756,-31.81012 -4.39392,-13.16011 -1.08962,-25.51658 6.48323,-36.51885 0.70908,-1.03002 -0.92225,-2.0674 -1.62499,-1.04562 v 0"
     style="fill:#12688d;fill-opacity:1;fill-rule:nonzero;stroke:none;stroke-width:0.0967287"
     id="path3469" /><path
     d="m 591.43183,500.5669 c -0.1916,21.74315 10.42265,42.29597 6.96055,64.16727 -0.19413,1.22837 1.6365,1.81088 1.8328,0.56787 3.5044,-22.13899 -7.07812,-42.71566 -6.88379,-64.68564 0.0115,-1.26251 -1.89829,-1.3151 -1.90956,-0.0495 v 0"
     style="fill:#12688d;fill-opacity:1;fill-rule:nonzero;stroke:none;stroke-width:0.0967287"
     id="path3471" /><path
     d="m 599.19271,549.4629 c -1.61548,2.42055 -3.61243,4.80766 -5.97679,6.48874 -0.74661,0.53138 -0.0662,1.83364 0.68917,1.29581 2.5785,-1.83427 4.73935,-4.35234 6.50643,-7.00056 0.52119,-0.7799 -0.70196,-1.5591 -1.21881,-0.78396 v 0"
     style="fill:#12688d;fill-opacity:1;fill-rule:nonzero;stroke:none;stroke-width:0.0967287"
     id="path3473" /><path
     d="m 597.53276,538.04529 c -3.35949,2.60205 -6.01239,5.99377 -9.28979,8.69272 -0.71898,0.59199 0.27319,1.66415 0.98456,1.07795 3.27739,-2.69895 5.93028,-6.09069 9.28977,-8.69273 0.73464,-0.56979 -0.2599,-1.64062 -0.98454,-1.07794 v 0"
     style="fill:#12688d;fill-opacity:1;fill-rule:nonzero;stroke:none;stroke-width:0.0967287"
     id="path3475" /><path
     d="m 595.20821,526.94452 c -3.94061,3.02847 -7.29229,6.80098 -11.42003,9.57952 -0.76266,0.51414 -0.0809,1.8148 0.6889,1.29672 4.23263,-2.84916 7.67644,-6.69318 11.71568,-9.79831 0.73656,-0.56611 -0.25824,-1.63602 -0.98455,-1.07793 v 0"
     style="fill:#12688d;fill-opacity:1;fill-rule:nonzero;stroke:none;stroke-width:0.0967287"
     id="path3477" /><path
     d="m 599.1732,546.06712 c 2.37495,2.6778 4.90662,5.20096 7.71167,7.40145 0.73863,0.57907 1.48151,-0.67124 0.75093,-1.24372 -2.70461,-2.1224 -5.13346,-4.57594 -7.42302,-7.15784 -0.62653,-0.70668 -1.66329,0.29737 -1.03962,1.00008 v 0"
     style="fill:#12688d;fill-opacity:1;fill-rule:nonzero;stroke:none;stroke-width:0.0967287"
     id="path3479" /><path
     d="m 597.10735,534.1031 c 4.51561,2.72129 8.36156,6.35514 12.30483,9.86088 0.69543,0.61875 1.73975,-0.37677 1.03961,-1.00008 -4.03476,-3.58719 -7.97133,-7.31957 -12.59349,-10.1045 -0.79908,-0.48239 -1.55094,0.761 -0.75093,1.24372 v 0"
     style="fill:#12688d;fill-opacity:1;fill-rule:nonzero;stroke:none;stroke-width:0.0967287"
     id="path3481" /><path
     d="m 594.73818,523.159 c 5.76565,2.84212 10.89858,6.88392 15.77278,11.10589 0.70258,0.60771 1.74781,-0.38752 1.03963,-1.00009 -4.97121,-4.30512 -10.17952,-8.4499 -16.06145,-11.34949 -0.82621,-0.40812 -1.58514,0.83208 -0.75093,1.24371 v 0"
     style="fill:#12688d;fill-opacity:1;fill-rule:nonzero;stroke:none;stroke-width:0.0967287"
     id="path3483" /><path
     d="m 571.5083,440.81979 c -15.48593,-9.76731 -25.12366,-33.47775 -24.33621,-51.57302 0.0681,-1.57779 -2.3182,-1.63921 -2.38741,-0.0607 -0.82386,18.94472 9.27361,43.49086 25.47041,53.70713 1.31909,0.83139 2.56981,-1.24375 1.25319,-2.07336 v 0"
     style="fill:#12688d;fill-opacity:1;fill-rule:nonzero;stroke:none;stroke-width:0.0967287"
     id="path3485" /><path
     d="m 534.92631,393.24388 c 1.89969,1.54525 3.94674,2.86154 5.94906,4.25687 1.87906,1.31018 3.43029,3.11198 5.43679,4.20536 1.08733,0.59216 2.09388,-1.06347 1.00205,-1.65904 -1.96151,-1.06924 -3.60892,-2.88349 -5.43624,-4.20417 -1.98058,-1.43351 -4.0469,-2.7098 -5.94998,-4.25818 -0.97055,-0.78875 -1.95953,0.88046 -1.0017,1.65915 v 0"
     style="fill:#12688d;fill-opacity:1;fill-rule:nonzero;stroke:none;stroke-width:0.0967287"
     id="path3487" /><path
     d="m 550.20487,409.85606 c 2.78885,-5.13738 5.41862,-10.34753 7.67933,-15.75881 0.48303,-1.1562 -1.35516,-1.71042 -1.83281,-0.56786 -2.19383,5.25025 -4.76671,10.29629 -7.47198,15.28089 -0.59611,1.09768 1.02845,2.14523 1.62546,1.04577 v 0"
     style="fill:#12688d;fill-opacity:1;fill-rule:nonzero;stroke:none;stroke-width:0.0967287"
     id="path3489" /><path
     d="m 532.17171,409.10321 c 6.23932,2.6397 12.38269,5.51206 18.62127,8.15151 1.14203,0.48351 1.6654,-1.39736 0.53421,-1.87649 -6.23857,-2.63947 -12.38195,-5.51182 -18.62127,-8.15152 -1.14202,-0.4835 -1.66503,1.39748 -0.53421,1.8765 v 0"
     style="fill:#12688d;fill-opacity:1;fill-rule:nonzero;stroke:none;stroke-width:0.0967287"
     id="path3491" /><path
     d="m 556.41942,423.76302 c 1.66424,-6.16887 4.07566,-12.02966 6.58316,-17.86989 0.49403,-1.14972 -1.34487,-1.70416 -1.83281,-0.56785 -2.50748,5.84022 -4.91891,11.701 -6.58314,17.86987 -0.32719,1.21368 1.50509,1.78344 1.83279,0.56787 v 0"
     style="fill:#12688d;fill-opacity:1;fill-rule:nonzero;stroke:none;stroke-width:0.0967287"
     id="path3493" /><path
     d="m 537.13207,426.12566 c 7.01815,2.07543 14.25486,3.16695 21.23609,5.38818 1.17966,0.37468 1.71314,-1.50203 0.53421,-1.8765 -6.98122,-2.22122 -14.21795,-3.31274 -21.2361,-5.38817 -1.18524,-0.35092 -1.72082,1.52517 -0.5342,1.87649 v 0"
     style="fill:#12688d;fill-opacity:1;fill-rule:nonzero;stroke:none;stroke-width:0.0967287"
     id="path3495" /><path
     d="m 544.21765,389.26764 c 5.90969,1.83103 8.58073,-7.55144 2.67105,-9.38247 -5.9097,-1.83103 -8.58075,7.55144 -2.67105,9.38247 v 0"
     style="fill:#fff6d5;fill-opacity:1;fill-rule:nonzero;stroke:none;stroke-width:0.0967287"
     id="path3497" /><path
     d="m 534.28216,396.14406 c 5.02306,1.55632 7.29347,-6.41877 2.27039,-7.97509 -5.02335,-1.55641 -7.29375,6.41867 -2.27039,7.97509 v 0"
     style="fill:#fff6d5;fill-opacity:1;fill-rule:nonzero;stroke:none;stroke-width:0.0967287"
     id="path3499" /><path
     d="m 555.95008,396.22102 c 5.02308,1.55632 7.29347,-6.41876 2.27038,-7.97509 -5.02334,-1.55641 -7.29374,6.41868 -2.27038,7.97509 v 0"
     style="fill:#fff6d5;fill-opacity:1;fill-rule:nonzero;stroke:none;stroke-width:0.0967287"
     id="path3501" /><path
     d="m 531.31632,411.81645 c 5.02306,1.55631 7.29347,-6.41876 2.27039,-7.97509 -5.02336,-1.55642 -7.29374,6.41868 -2.27039,7.97509 v 0"
     style="fill:#fff6d5;fill-opacity:1;fill-rule:nonzero;stroke:none;stroke-width:0.0967287"
     id="path3503" /><path
     d="m 560.73458,409.18971 c 5.02307,1.55632 7.29345,-6.41876 2.27039,-7.97508 -5.02337,-1.55641 -7.29375,6.41867 -2.27039,7.97508 v 0"
     style="fill:#fff6d5;fill-opacity:1;fill-rule:nonzero;stroke:none;stroke-width:0.0967287"
     id="path3505" /><path
     d="m 537.09429,429.17697 c 5.02307,1.55632 7.29347,-6.41877 2.27039,-7.97509 -5.02334,-1.55641 -7.29373,6.41868 -2.27039,7.97509 v 0"
     style="fill:#fff6d5;fill-opacity:1;fill-rule:nonzero;stroke:none;stroke-width:0.0967287"
     id="path3507" /><path
     d="m 617.79036,514.11746 c 12.69131,8.81159 21.91507,21.82024 35.51381,29.38148 1.35443,0.75248 2.61214,-1.31845 1.25342,-2.07329 -13.57991,-7.55029 -22.82996,-20.57526 -35.51381,-29.38147 -1.28475,-0.89222 -2.52976,1.18671 -1.25341,2.07328 v 0"
     style="fill:#12688d;fill-opacity:1;fill-rule:nonzero;stroke:none;stroke-width:0.0967287"
     id="path3509" /><path
     d="m 654.94822,533.28573 c -3.70243,0.12505 -7.31926,1.19652 -11.04041,0.83383 -1.22643,-0.11965 -1.24992,1.84056 -0.0284,1.9597 3.72967,0.3643 7.3347,-0.70775 11.04013,-0.83289 1.22349,-0.0416 1.26211,-2.00217 0.0286,-1.96064 v 0"
     style="fill:#12688d;fill-opacity:1;fill-rule:nonzero;stroke:none;stroke-width:0.0967287"
     id="path3511" /><path
     d="m 638.23533,531.74533 c 0.61254,5.84207 0.50854,11.70002 0.65248,17.55923 0.0314,1.25943 1.94062,1.31701 1.90957,0.0495 -0.14394,-5.85922 -0.0406,-11.71838 -0.65248,-17.55922 -0.12969,-1.23986 -2.04113,-1.3073 -1.90957,-0.0495 v 0"
     style="fill:#12688d;fill-opacity:1;fill-rule:nonzero;stroke:none;stroke-width:0.0967287"
     id="path3513" /><path
     d="m 633.35264,526.35167 c 5.32697,0.59988 10.28938,-2.29069 15.42866,-3.1508 1.21331,-0.20194 0.74483,-2.10835 -0.46362,-1.90591 -4.96316,0.82994 -9.80379,3.67452 -14.93732,3.09579 -1.2244,-0.13739 -1.24609,1.82337 -0.0277,1.96093 v 0"
     style="fill:#12688d;fill-opacity:1;fill-rule:nonzero;stroke:none;stroke-width:0.0967287"
     id="path3515" /><path
     d="m 627.54985,523.1601 c 0.33081,6.84213 -1.62819,13.42916 -2.57433,20.13296 -0.17597,1.24521 1.73615,1.28222 1.90958,0.0495 0.94699,-6.71374 2.90625,-13.27721 2.57339,-20.13325 -0.0604,-1.25517 -1.9708,-1.31614 -1.90864,-0.0491 v 0"
     style="fill:#12688d;fill-opacity:1;fill-rule:nonzero;stroke:none;stroke-width:0.0967287"
     id="path3517" /><path
     d="m 655.76416,549.15684 c 5.90895,1.83079 8.58002,-7.55166 2.67103,-9.38246 -5.90987,-1.83109 -8.5809,7.55137 -2.67103,9.38246 v 0"
     style="fill:#fff6d5;fill-opacity:1;fill-rule:nonzero;stroke:none;stroke-width:0.0967287"
     id="path3519" /><path
     d="m 647.81842,526.2749 c 5.02281,1.55624 7.29319,-6.41885 2.27038,-7.97509 -5.02371,-1.55653 -7.2941,6.41856 -2.27038,7.97509 v 0"
     style="fill:#fff6d5;fill-opacity:1;fill-rule:nonzero;stroke:none;stroke-width:0.0967287"
     id="path3521" /><path
     d="m 624.36924,547.34237 c 5.0228,1.55624 7.29319,-6.41884 2.27039,-7.97509 -5.02373,-1.55652 -7.29411,6.41855 -2.27039,7.97509 v 0"
     style="fill:#fff6d5;fill-opacity:1;fill-rule:nonzero;stroke:none;stroke-width:0.0967287"
     id="path3523" /><path
     d="m 638.56423,553.52724 c 5.02281,1.55624 7.29319,-6.41886 2.2704,-7.97509 -5.02373,-1.55652 -7.29411,6.41856 -2.2704,7.97509 v 0"
     style="fill:#fff6d5;fill-opacity:1;fill-rule:nonzero;stroke:none;stroke-width:0.0967287"
     id="path3525" /><path
     d="m 654.90314,538.16953 c 5.02281,1.55623 7.29319,-6.41884 2.27039,-7.97508 -5.02371,-1.55652 -7.29409,6.41856 -2.27039,7.97508 v 0"
     style="fill:#fff6d5;fill-opacity:1;fill-rule:nonzero;stroke:none;stroke-width:0.0967287"
     id="path3527" /><path
     d="m 574.69594,477.17194 c -6.67333,-11.04327 -23.69374,-44.15957 0.4897,-46.88284 25.56693,-3.05121 24.31256,31.51522 15.00583,46.64627 7.01663,-13.68628 35.40732,-33.24822 46.22442,-13.35542 9.48443,17.44195 -9.48193,29.93336 -36.16972,25.17579 12.40001,3.07415 42.21071,15.77789 29.4681,33.52713 -13.9642,19.45156 -36.11456,-7.0208 -38.78924,-22.47538 1.20277,20.96119 0.14569,45.75853 -22.36423,38.16544 -17.07384,-5.57494 -9.05404,-30.92267 3.69015,-45.36439 -18.48654,10.84309 -37.87692,14.08353 -40.97003,-4.12162 -3.66268,-24.38307 26.12974,-19.7489 43.41502,-11.31498"
     style="fill:#f7c4d7;fill-opacity:1;fill-rule:nonzero;stroke:none;stroke-width:0.0967287"
     id="path3529" /><path
     d="m 575.53267,476.70933 c -7.7542,-12.93314 -23.35398,-45.40201 3.0597,-45.6271 22.09878,-0.18877 18.31942,32.66825 10.78674,45.32985 0.54197,0.34865 1.08301,0.69702 1.62501,1.04562 6.69413,-12.45889 30.17087,-30.74376 42.75918,-16.16887 6.40156,7.41108 4.96625,17.34998 -2.73702,22.61362 -8.62741,5.89314 -20.67128,5.55432 -30.51299,3.91503 -1.17583,-0.19586 -1.76333,1.56306 -0.53421,1.87649 11.25254,2.86973 38.13961,13.082 30.52263,29.44108 -4.88014,10.47964 -15.21353,10.73206 -23.51208,4.48833 -7.33002,-5.51586 -13.37677,-14.90189 -15.13911,-24.04377 -0.20879,-1.08465 -1.94157,-0.91092 -1.87994,0.20372 0.75822,13.77241 2.27005,42.68904 -18.68481,37.97407 -22.09357,-4.9708 -7.30503,-34.086 1.62208,-44.42976 0.68465,-0.79355 -0.11996,-2.15678 -1.11593,-1.58321 -8.73063,5.01884 -19.66536,10.49728 -30.02077,8.18933 -9.15188,-2.03919 -12.33847,-14.94774 -8.06173,-22.55542 3.49462,-6.21641 12.32158,-6.31989 18.41292,-5.80685 7.58231,0.63806 15.18321,3.13502 22.07301,6.4306 1.10605,0.5285 2.11836,-1.12532 1.00183,-1.65912 -11.40236,-5.45235 -37.74243,-14.29646 -44.29254,2.51058 -2.95917,7.59219 0.39015,19.29021 8.3169,22.28018 11.12618,4.19671 23.99744,-2.20406 33.48846,-7.66114 -0.37137,-0.52755 -0.74273,-1.05511 -1.11502,-1.58293 -9.85906,11.42417 -24.16461,40.42864 -2.04979,47.41741 23.44789,7.40893 23.17323,-24.24559 22.33495,-39.47425 -0.62764,0.068 -1.25412,0.1352 -1.88086,0.20342 3.23043,16.76723 25.64265,42.45287 40.52852,22.76922 13.75588,-18.19083 -17.16188,-31.71029 -30.01454,-34.98799 -0.17788,0.62486 -0.35603,1.25066 -0.5342,1.87649 10.65753,1.77567 23.84848,2.11356 32.97322,-4.76289 7.68369,-5.79041 8.468,-14.64047 3.68131,-22.87952 -11.6106,-19.98142 -40.04133,0.9332 -47.25448,14.3605 -0.58971,1.09763 0.98385,2.12427 1.62501,1.04562 8.73121,-14.6753 11.08766,-47.4137 -12.38374,-48.33634 -10.84487,-0.42575 -17.65107,6.36145 -16.82356,17.40373 0.82088,10.95037 6.53416,21.88915 12.06238,31.10942 0.64637,1.07834 2.3231,0.15926 1.67349,-0.92519 v 0"
     style="fill:#12688d;fill-opacity:1;fill-rule:nonzero;stroke:none;stroke-width:0.0967287"
     id="path3531" /><path
     d="m 585.0543,472.39708 c -17.39441,-0.40896 -19.75388,29.36045 0.78414,30.02256 19.25641,0.63462 19.94327,-30.285 -0.78414,-30.02256"
     style="fill:#12688d;fill-opacity:1;fill-rule:nonzero;stroke:none;stroke-width:0.0967287"
     id="path3533" /><path
     d="m 583.38858,477.31986 c -4.76657,-0.11277 -5.41327,8.04376 0.21367,8.22401 5.27581,0.17358 5.46308,-8.29581 -0.21367,-8.22401"
     style="fill:#ffffff;fill-opacity:1;fill-rule:nonzero;stroke:none;stroke-width:0.0967287"
     id="path3535" /><path
     d="m 591.74222,484.57512 c -4.76567,-0.11254 -5.41208,8.0431 0.21339,8.22495 5.27673,0.17387 5.4652,-8.29618 -0.21339,-8.22495"
     style="fill:#ffffff;fill-opacity:1;fill-rule:nonzero;stroke:none;stroke-width:0.0967287"
     id="path3537" /><path
     d="m 581.6191,488.10679 c -4.76594,-0.11159 -5.4121,8.04311 0.21457,8.2243 5.27673,0.17386 5.46427,-8.29647 -0.21457,-8.2243"
     style="fill:#ffffff;fill-opacity:1;fill-rule:nonzero;stroke:none;stroke-width:0.0967287"
     id="path3539" /><path
     d="m 579.62369,450.52005 c 0.0858,7.85359 2.19674,15.50457 2.32701,23.35256 0.016,0.94532 1.44787,0.98792 1.43232,0.0373 -0.13062,-7.85013 -2.24069,-15.50083 -2.32672,-23.35348 -0.011,-0.94579 -1.44236,-0.98677 -1.4326,-0.0365 v 0"
     style="fill:#12688d;fill-opacity:1;fill-rule:nonzero;stroke:none;stroke-width:0.0967287"
     id="path3541" /><path
     d="m 596.63792,481.60364 c 7.85185,-2.73452 15.19733,-6.68879 22.99581,-9.55114 0.85643,-0.31457 0.52086,-1.74891 -0.34688,-1.42968 -7.79941,2.86206 -15.1458,6.81606 -22.99608,9.55208 -0.86422,0.2999 -0.52652,1.73388 0.34711,1.42875 v 0"
     style="fill:#12688d;fill-opacity:1;fill-rule:nonzero;stroke:none;stroke-width:0.0967287"
     id="path3543" /><path
     d="m 595.84523,496.3331 c 5.87991,5.11351 11.39304,10.63615 17.05109,16.00355 0.67825,0.64408 1.72124,-0.35399 1.0387,-1.00037 -5.65621,-5.36683 -11.17118,-10.89004 -17.05018,-16.00328 -0.70111,-0.60928 -1.74632,0.38606 -1.03961,1.0001 v 0"
     style="fill:#12688d;fill-opacity:1;fill-rule:nonzero;stroke:none;stroke-width:0.0967287"
     id="path3545" /><path
     d="m 579.85209,500.41579 c -1.36945,6.94019 -3.38764,13.68959 -5.32915,20.47092 -0.25898,0.90708 1.1154,1.33291 1.37461,0.42591 1.94151,-6.78132 3.9597,-13.53073 5.32913,-20.47093 0.18205,-0.91968 -1.19133,-1.35337 -1.37459,-0.4259 v 0"
     style="fill:#12688d;fill-opacity:1;fill-rule:nonzero;stroke:none;stroke-width:0.0967287"
     id="path3547" /><path
     d="m 572.6954,484.86817 c -7.07724,-1.11051 -14.1221,-2.39683 -21.14185,-3.85503 -0.89892,-0.18663 -1.30772,1.21923 -0.40064,1.40736 7.14556,1.48393 14.31816,2.78838 21.52098,3.91738 0.91149,0.14356 0.9236,-1.32805 0.0215,-1.46971 v 0"
     style="fill:#12688d;fill-opacity:1;fill-rule:nonzero;stroke:none;stroke-width:0.0967287"
     id="path3549" /><path
     d="m 575.298,467.50476 c 1.9417,2.58135 2.63383,5.86697 4.19504,8.66733 0.4607,0.82683 1.71678,0.13477 1.25545,-0.69328 -1.63115,-2.92616 -2.37931,-6.27408 -4.41089,-8.97413 -0.56856,-0.7561 -1.60089,0.25339 -1.0396,1.00008 v 0"
     style="fill:#12688d;fill-opacity:1;fill-rule:nonzero;stroke:none;stroke-width:0.0967287"
     id="path3551" /><path
     d="m 586.91155,465.20063 c -0.25246,2.79591 0.0861,5.70857 -0.75776,8.41005 -0.28146,0.90115 1.09394,1.32422 1.3746,0.42591 0.88573,-2.83452 0.54989,-5.86886 0.81577,-8.79946 0.0849,-0.94265 -1.34699,-0.97481 -1.43261,-0.0365 v 0"
     style="fill:#12688d;fill-opacity:1;fill-rule:nonzero;stroke:none;stroke-width:0.0967287"
     id="path3553" /><path
     d="m 601.54384,471.86712 c -2.28565,2.38546 -5.52972,3.71332 -8.46673,5.04851 -0.84303,0.38306 -0.1482,1.67652 0.68799,1.29646 3.05254,-1.38722 6.38668,-2.78621 8.76355,-5.26797 0.64388,-0.67142 -0.34042,-1.7503 -0.98481,-1.077 v 0"
     style="fill:#12688d;fill-opacity:1;fill-rule:nonzero;stroke:none;stroke-width:0.0967287"
     id="path3555" /><path
     d="m 598.80176,485.6781 c 3.61453,-0.5484 7.24231,-0.89463 10.90068,-0.97002 0.91876,-0.0186 0.9463,-1.48845 0.0206,-1.46999 -3.78151,0.0771 -7.53356,0.44296 -11.26909,1.01006 -0.91098,0.1384 -0.55897,1.56761 0.34782,1.42995 v 0"
     style="fill:#12688d;fill-opacity:1;fill-rule:nonzero;stroke:none;stroke-width:0.0967287"
     id="path3557" /><path
     d="m 598.01747,492.82922 c 3.36226,2.39048 6.89791,4.49061 10.41239,6.63015 0.79824,0.48523 1.54922,-0.75849 0.75119,-1.24467 -3.51473,-2.13857 -7.0492,-4.23937 -10.41173,-6.62891 -0.76571,-0.54354 -1.51077,0.70401 -0.75187,1.24342 v 0"
     style="fill:#12688d;fill-opacity:1;fill-rule:nonzero;stroke:none;stroke-width:0.0967287"
     id="path3559" /><path
     d="m 593.83161,499.36032 c 2.56148,2.08928 3.908,5.30405 5.69304,8.03286 0.51347,0.78497 1.77308,0.0981 1.25543,-0.69329 -1.94545,-2.97455 -3.40662,-6.30855 -6.19632,-8.58392 -0.72768,-0.59302 -1.46898,0.65878 -0.75212,1.24435 v 0"
     style="fill:#12688d;fill-opacity:1;fill-rule:nonzero;stroke:none;stroke-width:0.0967287"
     id="path3561" /><path
     d="m 584.51948,501.0451 c -0.45604,3.64766 -0.31977,7.34098 -0.80018,10.98312 -0.12285,0.93597 1.3098,0.96533 1.43234,0.0374 0.48068,-3.64307 0.34441,-7.33641 0.79927,-10.9834 0.11736,-0.93767 -1.31528,-0.96704 -1.43142,-0.0372 v 0"
     style="fill:#12688d;fill-opacity:1;fill-rule:nonzero;stroke:none;stroke-width:0.0967287"
     id="path3563" /><path
     d="m 577.23075,498.03942 c -1.74955,3.03145 -3.49818,6.06318 -5.24863,9.09433 -0.46864,0.81251 0.75107,1.59678 1.21946,0.78519 1.74955,-3.03144 3.49819,-6.06317 5.24865,-9.09433 0.46863,-0.81251 -0.75108,-1.59677 -1.21948,-0.7852 v 0"
     style="fill:#12688d;fill-opacity:1;fill-rule:nonzero;stroke:none;stroke-width:0.0967287"
     id="path3565" /><path
     d="m 571.83584,488.42348 c -3.55459,0.97538 -7.19453,1.48834 -10.84958,1.91392 -0.91399,0.10582 -0.55859,1.53508 0.34766,1.42893 3.65523,-0.4245 7.2951,-0.9375 10.84969,-1.91289 0.88805,-0.24353 0.54472,-1.67516 -0.34781,-1.42996 v 0"
     style="fill:#12688d;fill-opacity:1;fill-rule:nonzero;stroke:none;stroke-width:0.0967287"
     id="path3567" /><path
     d="m 573.36072,481.47323 c -3.37686,-0.62766 -6.47248,-2.12893 -9.73055,-3.18434 -0.88351,-0.28601 -1.2827,1.12182 -0.40066,1.40735 3.25806,1.05542 6.3537,2.55671 9.73056,3.18436 0.8985,0.16812 1.30978,-1.23799 0.40065,-1.40737 v 0"
     style="fill:#12688d;fill-opacity:1;fill-rule:nonzero;stroke:none;stroke-width:0.0967287"
     id="path3569" /></g><g
   transform="matrix(1.36555,0,0,1.44839,-146.465,-150.754)"
   id="g228783">
        
    </g>
    
    
    
    
    
    
    <defs
   id="defs229530">
        <linearGradient
   id="_Linear3"
   x1="0"
   y1="0"
   x2="1"
   y2="0"
   gradientUnits="userSpaceOnUse"
   gradientTransform="matrix(88.8022,0,0,59.214,483.792,255.644)"><stop
     offset="0"
     style="stop-color:rgb(142,151,117);stop-opacity:1"
     id="stop229395" /><stop
     offset="0.36"
     style="stop-color:rgb(84,91,70);stop-opacity:1"
     id="stop229397" /><stop
     offset="1"
     style="stop-color:rgb(74,80,61);stop-opacity:1"
     id="stop229399" /></linearGradient>
        <linearGradient
   id="_Linear4"
   x1="0"
   y1="0"
   x2="1"
   y2="0"
   gradientUnits="userSpaceOnUse"
   gradientTransform="matrix(88.8022,0,0,59.214,483.792,255.644)"><stop
     offset="0"
     style="stop-color:rgb(142,151,117);stop-opacity:1"
     id="stop229402" /><stop
     offset="0.36"
     style="stop-color:rgb(84,91,70);stop-opacity:1"
     id="stop229404" /><stop
     offset="1"
     style="stop-color:rgb(74,80,61);stop-opacity:1"
     id="stop229406" /></linearGradient>
        <linearGradient
   id="_Linear5"
   x1="0"
   y1="0"
   x2="1"
   y2="0"
   gradientUnits="userSpaceOnUse"
   gradientTransform="matrix(88.8022,0,0,59.214,483.792,255.644)"><stop
     offset="0"
     style="stop-color:rgb(142,151,117);stop-opacity:1"
     id="stop229409" /><stop
     offset="0.36"
     style="stop-color:rgb(84,91,70);stop-opacity:1"
     id="stop229411" /><stop
     offset="1"
     style="stop-color:rgb(74,80,61);stop-opacity:1"
     id="stop229413" /></linearGradient>
        <linearGradient
   id="_Linear6"
   x1="0"
   y1="0"
   x2="1"
   y2="0"
   gradientUnits="userSpaceOnUse"
   gradientTransform="matrix(88.8022,0,0,59.214,483.792,255.644)"><stop
     offset="0"
     style="stop-color:rgb(142,151,117);stop-opacity:1"
     id="stop229416" /><stop
     offset="0.36"
     style="stop-color:rgb(84,91,70);stop-opacity:1"
     id="stop229418" /><stop
     offset="1"
     style="stop-color:rgb(74,80,61);stop-opacity:1"
     id="stop229420" /></linearGradient>
        <linearGradient
   id="_Linear7"
   x1="0"
   y1="0"
   x2="1"
   y2="0"
   gradientUnits="userSpaceOnUse"
   gradientTransform="matrix(88.8022,0,0,59.214,483.792,255.644)"><stop
     offset="0"
     style="stop-color:rgb(142,151,117);stop-opacity:1"
     id="stop229423" /><stop
     offset="0.36"
     style="stop-color:rgb(84,91,70);stop-opacity:1"
     id="stop229425" /><stop
     offset="1"
     style="stop-color:rgb(74,80,61);stop-opacity:1"
     id="stop229427" /></linearGradient>
        <linearGradient
   id="_Linear8"
   x1="0"
   y1="0"
   x2="1"
   y2="0"
   gradientUnits="userSpaceOnUse"
   gradientTransform="matrix(88.8022,0,0,59.214,483.792,255.644)"><stop
     offset="0"
     style="stop-color:rgb(142,151,117);stop-opacity:1"
     id="stop229430" /><stop
     offset="0.36"
     style="stop-color:rgb(84,91,70);stop-opacity:1"
     id="stop229432" /><stop
     offset="1"
     style="stop-color:rgb(74,80,61);stop-opacity:1"
     id="stop229434" /></linearGradient>
        <linearGradient
   id="_Linear9"
   x1="0"
   y1="0"
   x2="1"
   y2="0"
   gradientUnits="userSpaceOnUse"
   gradientTransform="matrix(88.8022,0,0,59.214,483.792,255.644)"><stop
     offset="0"
     style="stop-color:rgb(142,151,117);stop-opacity:1"
     id="stop229437" /><stop
     offset="0.36"
     style="stop-color:rgb(84,91,70);stop-opacity:1"
     id="stop229439" /><stop
     offset="1"
     style="stop-color:rgb(74,80,61);stop-opacity:1"
     id="stop229441" /></linearGradient>
        <linearGradient
   id="_Linear11"
   x1="0"
   y1="0"
   x2="1"
   y2="0"
   gradientUnits="userSpaceOnUse"
   gradientTransform="matrix(171.681,0,0,169.028,585.646,222.896)"><stop
     offset="0"
     style="stop-color:rgb(142,151,117);stop-opacity:1"
     id="stop229444" /><stop
     offset="0.36"
     style="stop-color:rgb(84,91,70);stop-opacity:1"
     id="stop229446" /><stop
     offset="1"
     style="stop-color:rgb(74,80,61);stop-opacity:1"
     id="stop229448" /></linearGradient>
        <linearGradient
   id="_Linear12"
   x1="0"
   y1="0"
   x2="1"
   y2="0"
   gradientUnits="userSpaceOnUse"
   gradientTransform="matrix(106.571,0,0,119.998,48.077,139.307)"><stop
     offset="0"
     style="stop-color:rgb(74,80,61);stop-opacity:1"
     id="stop229451" /><stop
     offset="0.46"
     style="stop-color:rgb(87,93,72);stop-opacity:1"
     id="stop229453" /><stop
     offset="0.99"
     style="stop-color:rgb(120,128,99);stop-opacity:1"
     id="stop229455" /><stop
     offset="1"
     style="stop-color:rgb(123,131,101);stop-opacity:1"
     id="stop229457" /><stop
     offset="1"
     style="stop-color:rgb(131,140,108);stop-opacity:1"
     id="stop229459" /><stop
     offset="1"
     style="stop-color:rgb(142,151,117);stop-opacity:1"
     id="stop229461" /></linearGradient>
        <linearGradient
   id="_Linear13"
   x1="0"
   y1="0"
   x2="1"
   y2="0"
   gradientUnits="userSpaceOnUse"
   gradientTransform="matrix(106.571,0,0,119.998,48.077,139.307)"><stop
     offset="0"
     style="stop-color:rgb(74,80,61);stop-opacity:1"
     id="stop229464" /><stop
     offset="0.46"
     style="stop-color:rgb(87,93,72);stop-opacity:1"
     id="stop229466" /><stop
     offset="0.99"
     style="stop-color:rgb(120,128,99);stop-opacity:1"
     id="stop229468" /><stop
     offset="1"
     style="stop-color:rgb(123,131,101);stop-opacity:1"
     id="stop229470" /><stop
     offset="1"
     style="stop-color:rgb(131,140,108);stop-opacity:1"
     id="stop229472" /><stop
     offset="1"
     style="stop-color:rgb(142,151,117);stop-opacity:1"
     id="stop229474" /></linearGradient>
        <linearGradient
   id="_Linear14"
   x1="0"
   y1="0"
   x2="1"
   y2="0"
   gradientUnits="userSpaceOnUse"
   gradientTransform="matrix(106.571,0,0,119.998,48.077,139.307)"><stop
     offset="0"
     style="stop-color:rgb(74,80,61);stop-opacity:1"
     id="stop229477" /><stop
     offset="0.46"
     style="stop-color:rgb(87,93,72);stop-opacity:1"
     id="stop229479" /><stop
     offset="0.99"
     style="stop-color:rgb(120,128,99);stop-opacity:1"
     id="stop229481" /><stop
     offset="1"
     style="stop-color:rgb(123,131,101);stop-opacity:1"
     id="stop229483" /><stop
     offset="1"
     style="stop-color:rgb(131,140,108);stop-opacity:1"
     id="stop229485" /><stop
     offset="1"
     style="stop-color:rgb(142,151,117);stop-opacity:1"
     id="stop229487" /></linearGradient>
        <linearGradient
   id="_Linear15"
   x1="0"
   y1="0"
   x2="1"
   y2="0"
   gradientUnits="userSpaceOnUse"
   gradientTransform="matrix(88.8022,0,0,59.214,483.792,255.644)"><stop
     offset="0"
     style="stop-color:rgb(142,151,117);stop-opacity:1"
     id="stop229490" /><stop
     offset="0.36"
     style="stop-color:rgb(84,91,70);stop-opacity:1"
     id="stop229492" /><stop
     offset="1"
     style="stop-color:rgb(74,80,61);stop-opacity:1"
     id="stop229494" /></linearGradient>
        <linearGradient
   id="_Linear16"
   x1="0"
   y1="0"
   x2="1"
   y2="0"
   gradientUnits="userSpaceOnUse"
   gradientTransform="matrix(171.681,0,0,169.028,585.646,222.896)"><stop
     offset="0"
     style="stop-color:rgb(142,151,117);stop-opacity:1"
     id="stop229497" /><stop
     offset="0.36"
     style="stop-color:rgb(84,91,70);stop-opacity:1"
     id="stop229499" /><stop
     offset="1"
     style="stop-color:rgb(74,80,61);stop-opacity:1"
     id="stop229501" /></linearGradient>
        <linearGradient
   id="_Linear19"
   x1="0"
   y1="0"
   x2="1"
   y2="0"
   gradientUnits="userSpaceOnUse"
   gradientTransform="matrix(88.8022,0,0,59.214,483.792,255.644)"><stop
     offset="0"
     style="stop-color:rgb(74,80,61);stop-opacity:1"
     id="stop229504" /><stop
     offset="0.46"
     style="stop-color:rgb(87,93,72);stop-opacity:1"
     id="stop229506" /><stop
     offset="0.99"
     style="stop-color:rgb(120,128,99);stop-opacity:1"
     id="stop229508" /><stop
     offset="1"
     style="stop-color:rgb(123,131,101);stop-opacity:1"
     id="stop229510" /><stop
     offset="1"
     style="stop-color:rgb(131,140,108);stop-opacity:1"
     id="stop229512" /><stop
     offset="1"
     style="stop-color:rgb(142,151,117);stop-opacity:1"
     id="stop229514" /></linearGradient>
        <linearGradient
   id="_Linear20"
   x1="0"
   y1="0"
   x2="1"
   y2="0"
   gradientUnits="userSpaceOnUse"
   gradientTransform="matrix(88.8022,0,0,59.214,483.792,255.644)"><stop
     offset="0"
     style="stop-color:rgb(74,80,61);stop-opacity:1"
     id="stop229517" /><stop
     offset="0.46"
     style="stop-color:rgb(87,93,72);stop-opacity:1"
     id="stop229519" /><stop
     offset="0.99"
     style="stop-color:rgb(120,128,99);stop-opacity:1"
     id="stop229521" /><stop
     offset="1"
     style="stop-color:rgb(123,131,101);stop-opacity:1"
     id="stop229523" /><stop
     offset="1"
     style="stop-color:rgb(131,140,108);stop-opacity:1"
     id="stop229525" /><stop
     offset="1"
     style="stop-color:rgb(142,151,117);stop-opacity:1"
     id="stop229527" /></linearGradient>
    </defs>
<g
   inkscape:groupmode="layer"
   id="layer1"
   inkscape:label="Layer 1"
   style="display:inline"><text
     xml:space="preserve"
     style="font-style:normal;font-variant:normal;font-weight:normal;font-stretch:normal;font-size:120px;line-height:1.25;font-family:Z003;-inkscape-font-specification:Z003;clip-rule:evenodd;fill:#12688d;fill-opacity:1;fill-rule:evenodd;stroke-width:0.999999;stroke-linecap:round;stroke-linejoin:round;stroke-miterlimit:1.5"
     x="220.17908"
     y="248.80457"
     id="text157283"><tspan
       sodipodi:role="line"
       id="tspan157281"
       style="font-style:normal;font-variant:normal;font-weight:normal;font-stretch:normal;font-size:120px;font-family:Z003;-inkscape-font-specification:Z003;fill:#12688d;fill-opacity:1;stroke-width:0.999999"
       x="220.17908"
       y="248.80457">Mariola</tspan></text><text
     xml:space="preserve"
     style="font-style:normal;font-variant:normal;font-weight:normal;font-stretch:normal;font-size:85.3334px;line-height:1.25;font-family:Z003;-inkscape-font-specification:Z003;clip-rule:evenodd;fill:#12688d;fill-opacity:1;fill-rule:evenodd;stroke-width:0.999999;stroke-linecap:round;stroke-linejoin:round;stroke-miterlimit:1.5"
     x="379.62375"
     y="306.73947"
     id="text166719"><tspan
       sodipodi:role="line"
       id="tspan166717"
       style="font-style:normal;font-variant:normal;font-weight:normal;font-stretch:normal;font-size:85.3334px;font-family:Z003;-inkscape-font-specification:Z003;fill:#12688d;fill-opacity:1;stroke-width:0.999999"
       x="379.62375"
       y="306.73947">y</tspan></text><text
     xml:space="preserve"
     style="font-size:120px;line-height:1.25;font-family:lora;-inkscape-font-specification:lora;clip-rule:evenodd;fill:#12688d;fill-opacity:1;fill-rule:evenodd;stroke-width:0.999999;stroke-linecap:round;stroke-linejoin:round;stroke-miterlimit:1.5"
     x="275.35968"
     y="400.41827"
     id="text186133"><tspan
       sodipodi:role="line"
       id="tspan186131"
       style="font-style:normal;font-variant:normal;font-weight:normal;font-stretch:normal;font-size:120px;font-family:Z003;-inkscape-font-specification:Z003;fill:#12688d;fill-opacity:1;stroke-width:0.999999"
       x="275.35968"
       y="400.41827">Pedro</tspan></text></g></svg>
